<svg width="26" height="26" viewBox="0 0 26 26" fill="none" xmlns="http://www.w3.org/2000/svg">
<path d="M13 2.4375C10.9109 2.4375 8.86879 3.05698 7.13179 4.2176C5.3948 5.37822 4.04098 7.02786 3.24153 8.95791C2.44208 10.888 2.2329 13.0117 2.64046 15.0606C3.04802 17.1096 4.054 18.9916 5.53119 20.4688C7.00838 21.946 8.89044 22.952 10.9394 23.3595C12.9883 23.7671 15.1121 23.5579 17.0421 22.7585C18.9721 21.959 20.6218 20.6052 21.7824 18.8682C22.943 17.1312 23.5625 15.0891 23.5625 13C23.5598 10.1995 22.4461 7.51443 20.4659 5.53415C18.4856 3.55388 15.8005 2.44019 13 2.4375ZM13 21.9375C11.2323 21.9375 9.50436 21.4133 8.0346 20.4313C6.56483 19.4492 5.41929 18.0533 4.74283 16.4202C4.06637 14.7871 3.88938 12.9901 4.23424 11.2564C4.57909 9.52268 5.43031 7.93017 6.68024 6.68023C7.93017 5.4303 9.52268 4.57909 11.2564 4.23423C12.9901 3.88938 14.7871 4.06637 16.4202 4.74283C18.0534 5.41929 19.4492 6.56483 20.4313 8.03459C21.4133 9.50436 21.9375 11.2323 21.9375 13C21.9348 15.3695 20.9923 17.6413 19.3168 19.3168C17.6413 20.9923 15.3696 21.9348 13 21.9375ZM14.2188 18.2813C14.2188 18.5223 14.1473 18.7579 14.0134 18.9584C13.8794 19.1588 13.6891 19.315 13.4664 19.4072C13.2437 19.4995 12.9987 19.5236 12.7622 19.4766C12.5258 19.4296 12.3087 19.3135 12.1382 19.143C11.9678 18.9726 11.8517 18.7554 11.8047 18.519C11.7576 18.2826 11.7818 18.0376 11.874 17.8149C11.9663 17.5922 12.1225 17.4018 12.3229 17.2679C12.5233 17.134 12.759 17.0625 13 17.0625C13.3232 17.0625 13.6332 17.1909 13.8618 17.4195C14.0904 17.648 14.2188 17.958 14.2188 18.2813ZM16.6563 10.9688C16.6563 11.7972 16.3749 12.6012 15.8582 13.2488C15.3416 13.8965 14.6203 14.3495 13.8125 14.5336V14.625C13.8125 14.8405 13.7269 15.0472 13.5745 15.1995C13.4222 15.3519 13.2155 15.4375 13 15.4375C12.7845 15.4375 12.5779 15.3519 12.4255 15.1995C12.2731 15.0472 12.1875 14.8405 12.1875 14.625V13.8125C12.1875 13.597 12.2731 13.3903 12.4255 13.238C12.5779 13.0856 12.7845 13 13 13C13.4017 13 13.7945 12.8809 14.1285 12.6577C14.4625 12.4345 14.7229 12.1172 14.8766 11.7461C15.0304 11.3749 15.0706 10.9665 14.9922 10.5725C14.9138 10.1784 14.7204 9.81652 14.4363 9.53244C14.1522 9.24836 13.7903 9.05491 13.3963 8.97653C13.0023 8.89815 12.5938 8.93838 12.2227 9.09212C11.8515 9.24586 11.5343 9.50621 11.3111 9.84025C11.0879 10.1743 10.9688 10.567 10.9688 10.9688C10.9688 11.1842 10.8832 11.3909 10.7308 11.5433C10.5784 11.6956 10.3717 11.7813 10.1563 11.7813C9.94077 11.7813 9.7341 11.6956 9.58173 11.5433C9.42936 11.3909 9.34376 11.1842 9.34376 10.9688C9.34376 9.99905 9.72897 9.06907 10.4146 8.38339C11.1003 7.69771 12.0303 7.3125 13 7.3125C13.9697 7.3125 14.8997 7.69771 15.5854 8.38339C16.271 9.06907 16.6563 9.99905 16.6563 10.9688Z" fill="#707070"/>
</svg>
