<svg width="22" height="22" viewBox="0 0 22 22" fill="none" xmlns="http://www.w3.org/2000/svg">
<path d="M7.69995 3.29999C7.40821 3.29999 7.12842 3.41588 6.92213 3.62217C6.71584 3.82846 6.59995 4.10825 6.59995 4.39999C6.59995 4.69173 6.71584 4.97152 6.92213 5.17781C7.12842 5.3841 7.40821 5.49999 7.69995 5.49999H14.2999C14.5917 5.49999 14.8715 5.3841 15.0778 5.17781C15.2841 4.97152 15.4 4.69173 15.4 4.39999C15.4 4.10825 15.2841 3.82846 15.0778 3.62217C14.8715 3.41588 14.5917 3.29999 14.2999 3.29999H7.69995ZM4.39995 7.69999C4.39995 7.40825 4.51584 7.12846 4.72213 6.92217C4.92842 6.71588 5.20821 6.59999 5.49995 6.59999H16.5C16.7917 6.59999 17.0715 6.71588 17.2778 6.92217C17.4841 7.12846 17.5999 7.40825 17.5999 7.69999C17.5999 7.99173 17.4841 8.27152 17.2778 8.47781C17.0715 8.6841 16.7917 8.79999 16.5 8.79999H5.49995C5.20821 8.79999 4.92842 8.6841 4.72213 8.47781C4.51584 8.27152 4.39995 7.99173 4.39995 7.69999ZM2.19995 12.1C2.19995 11.5165 2.43174 10.9569 2.84432 10.5444C3.2569 10.1318 3.81647 9.89999 4.39995 9.89999H17.5999C18.1834 9.89999 18.743 10.1318 19.1556 10.5444C19.5682 10.9569 19.7999 11.5165 19.7999 12.1V16.5C19.7999 17.0835 19.5682 17.643 19.1556 18.0556C18.743 18.4682 18.1834 18.7 17.5999 18.7H4.39995C3.81647 18.7 3.2569 18.4682 2.84432 18.0556C2.43174 17.643 2.19995 17.0835 2.19995 16.5V12.1Z" fill="white"/>
</svg>
