<svg width="22" height="22" viewBox="0 0 22 22" fill="none" xmlns="http://www.w3.org/2000/svg">
<path fill-rule="evenodd" clip-rule="evenodd" d="M12.8655 2.57492C13.2047 2.33108 13.6813 2.21742 14.1497 2.38883C15.1456 2.75365 16.0705 3.28869 16.8832 3.97008C17.2655 4.29092 17.4057 4.75933 17.3636 5.17367C17.2948 5.86392 17.4158 6.53033 17.7486 7.10417C18.0419 7.61475 18.4837 8.01808 19.0227 8.30225L19.229 8.40308C19.6085 8.5745 19.9458 8.93108 20.0311 9.42333C20.2121 10.4666 20.2121 11.5334 20.0311 12.5767C19.955 13.0203 19.6736 13.3531 19.3408 13.5401L19.229 13.5978C18.5965 13.882 18.0795 14.322 17.7477 14.8958C17.4158 15.4706 17.2948 16.1361 17.3636 16.8263C17.4048 17.2407 17.2655 17.71 16.8832 18.0299C16.0705 18.7113 15.1456 19.2463 14.1497 19.6112C13.9369 19.6873 13.7086 19.7101 13.4849 19.6777C13.2612 19.6453 13.0489 19.5585 12.8664 19.4251C12.3017 19.0208 11.6628 18.7917 11.0001 18.7917C10.3373 18.7917 9.69841 19.0199 9.13466 19.4251C8.9521 19.5587 8.73958 19.6455 8.51569 19.6779C8.29181 19.7104 8.06338 19.6875 7.85041 19.6112C6.85454 19.2464 5.92963 18.7113 5.11691 18.0299C4.94478 17.8837 4.81103 17.6975 4.7273 17.4878C4.64358 17.278 4.61244 17.0509 4.63658 16.8263C4.70533 16.1361 4.58341 15.4697 4.25158 14.8958C3.94935 14.3835 3.50736 13.9679 2.97741 13.6977L2.77116 13.5969C2.56431 13.5053 2.38305 13.3644 2.24323 13.1865C2.10341 13.0087 2.00928 12.7993 1.96908 12.5767C1.78798 11.5334 1.78798 10.4666 1.96908 9.42333C2.04516 8.97967 2.32658 8.64692 2.65933 8.45992L2.77116 8.40308C3.40366 8.118 3.92066 7.67892 4.25249 7.10417C4.58341 6.53033 4.70533 5.86392 4.63658 5.17367C4.61244 4.94909 4.64358 4.72202 4.7273 4.51224C4.81103 4.30245 4.94478 4.11633 5.11691 3.97008C5.92964 3.28869 6.85455 2.75365 7.85041 2.38883C8.06327 2.31278 8.2915 2.28998 8.5152 2.32241C8.7389 2.35485 8.95125 2.44154 9.13374 2.57492C9.69749 2.98008 10.3364 3.20833 11.0001 3.20833C11.6637 3.20833 12.3017 2.98008 12.8655 2.57492ZM13.7427 4.1965C12.9489 4.719 12.013 5.04167 11.0001 5.04167C9.98716 5.04167 9.05124 4.71808 8.25741 4.1965C7.61926 4.45408 7.02059 4.80032 6.47908 5.225C6.53408 6.17192 6.34616 7.14358 5.84016 8.02083C5.33324 8.89717 4.58616 9.54525 3.73824 9.9715C3.64272 10.6532 3.64272 11.3449 3.73824 12.0267C4.58616 12.4529 5.33324 13.101 5.84016 13.9792C6.34616 14.8546 6.53408 15.8262 6.47908 16.7732C7.02054 17.1982 7.61921 17.5447 8.25741 17.8026C9.05124 17.2801 9.98716 16.9574 11.0001 16.9574C12.013 16.9574 12.9489 17.281 13.7427 17.8026C14.3809 17.545 14.9795 17.1987 15.5211 16.7741C15.4661 15.8262 15.654 14.8546 16.16 13.9782C16.666 13.101 17.414 12.4529 18.2619 12.0257C18.3574 11.3446 18.3574 10.6535 18.2619 9.97242C17.414 9.54525 16.6669 8.89717 16.16 8.01992C15.654 7.14358 15.4661 6.17192 15.5211 5.22408C14.9796 4.79941 14.3809 4.45408 13.7427 4.1965ZM11.0001 7.33333C11.9725 7.33333 12.9052 7.71964 13.5928 8.40727C14.2804 9.09491 14.6667 10.0275 14.6667 11C14.6667 11.9725 14.2804 12.9051 13.5928 13.5927C12.9052 14.2804 11.9725 14.6667 11.0001 14.6667C10.0276 14.6667 9.09499 14.2804 8.40735 13.5927C7.71972 12.9051 7.33341 11.9725 7.33341 11C7.33341 10.0275 7.71972 9.09491 8.40735 8.40727C9.09499 7.71964 10.0276 7.33333 11.0001 7.33333ZM11.0001 9.16667C10.5138 9.16667 10.0475 9.35982 9.70372 9.70364C9.3599 10.0475 9.16674 10.5138 9.16674 11C9.16674 11.4862 9.3599 11.9525 9.70372 12.2964C10.0475 12.6402 10.5138 12.8333 11.0001 12.8333C11.4863 12.8333 11.9526 12.6402 12.2964 12.2964C12.6403 11.9525 12.8334 11.4862 12.8334 11C12.8334 10.5138 12.6403 10.0475 12.2964 9.70364C11.9526 9.35982 11.4863 9.16667 11.0001 9.16667Z" fill="#878787"/>
</svg>
