<svg width="22" height="22" viewBox="0 0 22 22" fill="none" xmlns="http://www.w3.org/2000/svg">
<path d="M17.4167 10.0833H4.58333M17.4167 10.0833C17.9029 10.0833 18.3692 10.2765 18.713 10.6203C19.0568 10.9641 19.25 11.4304 19.25 11.9167V17.4167C19.25 17.9029 19.0568 18.3692 18.713 18.713C18.3692 19.0568 17.9029 19.25 17.4167 19.25H4.58333C4.0971 19.25 3.63079 19.0568 3.28697 18.713C2.94315 18.3692 2.75 17.9029 2.75 17.4167V11.9167C2.75 11.4304 2.94315 10.9641 3.28697 10.6203C3.63079 10.2765 4.0971 10.0833 4.58333 10.0833M17.4167 10.0833V8.25C17.4167 7.76377 17.2235 7.29745 16.8797 6.95364C16.5359 6.60982 16.0696 6.41667 15.5833 6.41667M4.58333 10.0833V8.25C4.58333 7.76377 4.77649 7.29745 5.1203 6.95364C5.46412 6.60982 5.93044 6.41667 6.41667 6.41667M15.5833 6.41667V4.58333C15.5833 4.0971 15.3902 3.63079 15.0464 3.28697C14.7025 2.94315 14.2362 2.75 13.75 2.75H8.25C7.76377 2.75 7.29745 2.94315 6.95364 3.28697C6.60982 3.63079 6.41667 4.0971 6.41667 4.58333V6.41667M15.5833 6.41667H6.41667" stroke="#878787" stroke-width="1.8" stroke-linecap="round" stroke-linejoin="round"/>
</svg>
