<svg width="20" height="20" viewBox="0 0 20 20" fill="none" xmlns="http://www.w3.org/2000/svg">
<path d="M12.4427 18.5561L5.41985 11.13C5.26717 10.9686 5.15929 10.7937 5.09618 10.6054C5.03206 10.417 5 10.2152 5 10C5 9.78475 5.03206 9.58296 5.09618 9.39462C5.15929 9.20628 5.26717 9.03139 5.41985 8.86995L12.4427 1.44395C12.7226 1.14798 13.0789 1 13.5115 1C13.944 1 14.3003 1.14798 14.5802 1.44395C14.8601 1.73991 15 2.11659 15 2.57399C15 3.03139 14.8601 3.40807 14.5802 3.70404L8.62595 10L14.5802 16.296C14.8601 16.5919 15 16.9686 15 17.426C15 17.8834 14.8601 18.2601 14.5802 18.5561C14.3003 18.852 13.944 19 13.5115 19C13.0789 19 12.7226 18.852 12.4427 18.5561V18.5561Z" fill="#999999"/>
</svg>
