<svg width="24" height="24" viewBox="0 0 24 24" fill="none" xmlns="http://www.w3.org/2000/svg">
<path d="M18.75 15.75V6C18.75 5.80109 18.671 5.61032 18.5303 5.46967C18.3897 5.32902 18.1989 5.25 18 5.25L8.24997 5.25C8.05106 5.25 7.86029 5.32902 7.71964 5.46967C7.57899 5.61032 7.49997 5.80109 7.49997 6C7.49997 6.19891 7.57899 6.38968 7.71964 6.53033C7.86029 6.67098 8.05106 6.75 8.24997 6.75L16.1906 6.75L5.4656 17.4656C5.346 17.6113 5.28488 17.7963 5.29413 17.9846C5.30338 18.1729 5.38233 18.351 5.51563 18.4843C5.64893 18.6176 5.82705 18.6966 6.01534 18.7058C6.20363 18.7151 6.38862 18.654 6.53435 18.5344L17.25 7.80937V15.75C17.25 15.9489 17.329 16.1397 17.4696 16.2803C17.6103 16.421 17.8011 16.5 18 16.5C18.1989 16.5 18.3897 16.421 18.5303 16.2803C18.671 16.1397 18.75 15.9489 18.75 15.75Z" fill="#F2F2F2"/>
<line x1="18.0326" y1="21.25" x2="5.96738" y2="21.25" stroke="#F2F2F2" stroke-width="1.5" stroke-linecap="round"/>
</svg>
