<svg width="22" height="22" viewBox="0 0 22 22" fill="none" xmlns="http://www.w3.org/2000/svg">
<path fill-rule="evenodd" clip-rule="evenodd" d="M9.78981 1.57208C10.1389 1.31027 10.5635 1.16875 10.9998 1.16875C11.4362 1.16875 11.8607 1.31027 12.2098 1.57208L19.2681 6.86583C19.5186 7.05368 19.7219 7.29726 19.8619 7.57728C20.0019 7.85731 20.0748 8.16609 20.0748 8.47916V18.0583C20.0748 18.5932 19.8623 19.1061 19.4841 19.4843C19.1059 19.8625 18.593 20.075 18.0581 20.075H13.1173C12.8231 20.075 12.541 19.9581 12.333 19.7501C12.125 19.5421 12.0081 19.26 12.0081 18.9658V13.0167C12.0081 12.7492 11.9019 12.4928 11.7128 12.3037C11.5237 12.1146 11.2672 12.0083 10.9998 12.0083C10.7324 12.0083 10.4759 12.1146 10.2868 12.3037C10.0977 12.4928 9.99147 12.7492 9.99147 13.0167V18.9658C9.99147 19.1115 9.96278 19.2557 9.90704 19.3903C9.8513 19.5249 9.7696 19.6471 9.6666 19.7501C9.56361 19.8531 9.44134 19.9348 9.30677 19.9906C9.17219 20.0463 9.02796 20.075 8.88231 20.075H3.94147C3.40662 20.075 2.89367 19.8625 2.51547 19.4843C2.13727 19.1061 1.9248 18.5932 1.9248 18.0583V8.47916C1.9248 8.16609 1.9977 7.85731 2.13771 7.57728C2.27772 7.29726 2.48101 7.05368 2.73147 6.86583L9.78981 1.57208ZM10.9998 3.18541L3.94147 8.47916V18.0583H7.97481V13.0167C7.97481 12.2144 8.29351 11.445 8.86081 10.8777C9.4281 10.3104 10.1975 9.99166 10.9998 9.99166C11.8021 9.99166 12.5715 10.3104 13.1388 10.8777C13.7061 11.445 14.0248 12.2144 14.0248 13.0167V18.0583H18.0581V8.47916L10.9998 3.18541Z" fill="#878787"/>
</svg>
