<svg width="24" height="24" viewBox="0 0 24 24" fill="none" xmlns="http://www.w3.org/2000/svg">
<path d="M5.25003 8.25V18C5.25003 18.1989 5.32904 18.3897 5.4697 18.5303C5.61035 18.671 5.80112 18.75 6.00003 18.75H15.75C15.9489 18.75 16.1397 18.671 16.2804 18.5303C16.421 18.3897 16.5 18.1989 16.5 18C16.5 17.8011 16.421 17.6103 16.2804 17.4697C16.1397 17.329 15.9489 17.25 15.75 17.25H7.8094L18.5344 6.53437C18.654 6.38865 18.7151 6.20366 18.7059 6.01537C18.6966 5.82708 18.6177 5.64896 18.4844 5.51566C18.3511 5.38236 18.173 5.3034 17.9847 5.29416C17.7964 5.28491 17.6114 5.34603 17.4657 5.46563L6.75003 16.1906V8.25C6.75003 8.05109 6.67101 7.86032 6.53036 7.71967C6.38971 7.57902 6.19894 7.5 6.00003 7.5C5.80112 7.5 5.61035 7.57902 5.4697 7.71967C5.32904 7.86032 5.25003 8.05109 5.25003 8.25Z" fill="white"/>
<line x1="5.96741" y1="21.163" x2="18.0326" y2="21.163" stroke="white" stroke-width="1.5" stroke-linecap="round"/>
</svg>
